<mxfile host="app.diagrams.net" modified="2024-04-09T16:05:44.864Z" agent="Mozilla/5.0 (X11; Linux x86_64) AppleWebKit/537.36 (KHTML, like Gecko) Chrome/120.0.0.0 Safari/537.36" version="22.1.21" etag="TL-tjEJxb6ReZL8B2Qom" type="github">
  <diagram name="Page-1" id="lUzfbD2mt5Zzq4a1NB_R">
    <mxGraphModel>
      <root>
        <mxCell id="0" />
        <mxCell id="1" parent="0" />
      </root>
    </mxGraphModel>
  </diagram>
</mxfile>
